<?xml version="1.0" standalone="no"?>
<!DOCTYPE svg PUBLIC "-//W3C//DTD SVG 20010904//EN"
 "http://www.w3.org/TR/2001/REC-SVG-20010904/DTD/svg10.dtd">
<svg version="1.0" xmlns="http://www.w3.org/2000/svg"
 width="1391.000000pt" height="579.000000pt" viewBox="0 0 1391.000000 579.000000"
 preserveAspectRatio="xMidYMid meet">

<g transform="translate(0.000000,579.000000) scale(0.100000,-0.100000)"
fill="#000000" stroke="none">
<path d="M2125 4714 c-400 -36 -747 -178 -1062 -435 -475 -389 -710 -978 -568
-1426 41 -129 130 -240 232 -288 123 -59 270 -56 402 7 87 41 230 182 291 287
93 160 155 366 167 549 l6 102 -26 0 c-25 0 -27 -3 -27 -47 0 -129 -50 -333
-115 -472 -83 -174 -200 -306 -325 -365 -55 -26 -79 -32 -158 -34 -84 -4 -98
-1 -147 22 -93 46 -158 144 -190 290 -15 65 -17 108 -12 250 3 96 13 201 22
239 71 315 261 626 508 833 234 197 506 332 794 396 80 18 132 22 278 22 113
1 202 -4 240 -12 89 -20 175 -49 218 -75 l39 -23 -79 -59 c-260 -195 -507
-550 -808 -1160 -67 -137 -162 -340 -211 -450 -309 -699 -560 -1099 -756
-1206 -59 -32 -69 -34 -155 -34 -85 0 -94 2 -134 30 -51 36 -82 85 -60 93 54
19 89 120 70 198 -30 120 -165 125 -227 9 -27 -50 -21 -162 12 -229 84 -172
298 -222 534 -124 210 87 440 338 676 736 103 175 199 364 396 782 305 645
466 952 589 1124 64 90 194 226 216 226 16 0 59 -68 85 -139 61 -159 41 -449
-46 -668 -69 -174 -186 -316 -319 -384 -99 -51 -158 -63 -286 -56 -106 5 -107
5 -111 -18 -4 -21 0 -25 42 -35 25 -6 70 -25 99 -41 66 -38 91 -88 98 -198 9
-129 -18 -253 -137 -636 -80 -256 -100 -344 -100 -441 0 -142 42 -228 134
-277 58 -30 178 -30 261 1 254 94 572 489 869 1080 33 67 42 92 33 101 -6 6
-14 11 -18 11 -4 0 -48 -76 -98 -170 -216 -405 -450 -726 -632 -866 -112 -86
-229 -129 -303 -110 -69 17 -73 153 -12 386 160 620 173 684 162 804 -3 39
-16 100 -28 136 -17 54 -33 76 -88 132 -72 72 -72 77 10 78 54 0 192 36 264
69 241 109 391 334 426 641 31 261 -26 464 -170 610 l-69 70 69 40 c67 39 147
73 203 85 25 5 37 28 20 38 -15 9 -119 -24 -236 -75 l-119 -50 -76 35 c-83 38
-156 59 -267 76 -83 12 -233 20 -290 15z"/>
<path d="M13476 4675 c4 -11 29 -83 55 -160 77 -225 93 -317 94 -540 0 -172
-2 -197 -24 -265 -32 -103 -55 -145 -113 -207 -76 -79 -139 -106 -263 -111
-146 -5 -255 25 -457 126 l-156 78 -11 -23 c-6 -13 -11 -30 -11 -37 0 -19 237
-138 348 -175 385 -128 653 1 743 359 19 74 21 102 16 215 -4 72 -15 172 -26
223 -30 135 -94 322 -152 437 -27 55 -46 91 -43 80z"/>
<path d="M12653 3819 c-102 -50 -179 -215 -256 -545 -26 -109 -151 -485 -461
-1388 -235 -681 -425 -1240 -424 -1242 2 -1 221 516 487 1149 493 1172 540
1280 655 1492 36 66 66 125 66 130 0 10 -54 45 -70 45 -5 0 -23 -27 -41 -59
-52 -99 -89 -117 -89 -43 0 120 128 393 171 366 8 -5 10 -30 6 -76 l-6 -68 39
-20 38 -19 12 65 c14 73 9 160 -11 192 -12 19 -49 42 -67 42 -4 0 -26 -9 -49
-21z"/>
<path d="M4332 3144 c-288 -77 -638 -472 -772 -872 -79 -237 -76 -458 9 -572
60 -81 122 -110 236 -110 190 0 385 108 621 344 145 146 228 247 343 416 85
125 221 366 221 392 0 8 -6 21 -14 27 -12 10 -22 -3 -56 -71 -273 -536 -772
-1028 -1045 -1028 -49 0 -58 4 -89 35 -50 50 -70 124 -69 255 0 58 6 134 13
170 17 90 59 220 73 225 299 99 541 232 684 375 92 91 127 159 127 244 -1 148
-113 216 -282 170z m87 -80 c26 -33 29 -130 6 -193 -44 -127 -203 -274 -400
-373 -87 -44 -193 -83 -202 -74 -11 11 135 288 203 383 129 181 249 283 330
283 34 0 47 -5 63 -26z"/>
<path d="M6107 3149 c-177 -42 -402 -266 -621 -618 -37 -61 -70 -111 -73 -111
-2 0 -2 3 0 8 9 15 355 648 366 670 l12 22 -109 0 -110 0 -12 -32 c-7 -18
-167 -346 -355 -728 -189 -382 -346 -705 -350 -718 l-7 -23 113 3 112 3 71
160 c158 353 400 764 590 1002 92 113 227 237 299 273 157 78 233 4 176 -172
-13 -40 -126 -280 -252 -533 -219 -440 -347 -708 -347 -727 0 -5 50 -7 111 -6
l110 3 45 115 c152 390 440 859 698 1137 166 179 338 259 396 186 19 -24 21
-37 17 -86 -7 -75 -59 -181 -228 -462 -208 -346 -289 -532 -289 -666 0 -72 34
-169 72 -206 42 -40 76 -53 141 -53 211 1 507 318 884 945 129 214 127 212
104 225 -17 9 -24 2 -57 -58 -59 -107 -230 -378 -307 -487 -200 -284 -375
-467 -510 -535 -75 -38 -119 -39 -154 -4 -23 23 -25 31 -21 98 3 64 10 86 60
189 31 64 110 207 174 319 200 346 276 520 276 638 1 124 -44 202 -129 228
-56 17 -91 15 -165 -8 -164 -51 -353 -237 -600 -590 -10 -14 7 27 37 90 73
156 97 232 97 307 -1 67 -25 135 -60 166 -46 41 -125 55 -205 36z"/>
<path d="M8643 3146 c-342 -86 -752 -614 -823 -1058 -14 -84 -9 -241 9 -300
19 -60 73 -130 124 -162 42 -26 61 -30 137 -34 106 -5 193 17 308 79 279 149
628 543 842 952 58 111 68 147 38 147 -7 0 -35 -44 -63 -97 -61 -118 -197
-326 -295 -453 -97 -124 -293 -321 -398 -398 -124 -92 -235 -143 -319 -149
-63 -5 -71 -3 -99 21 -98 82 -110 330 -29 582 l25 79 88 28 c115 38 330 142
436 210 122 80 229 185 267 263 28 56 31 71 27 131 -4 77 -28 122 -80 149 -42
22 -132 26 -195 10z m77 -76 c11 -11 22 -31 26 -46 11 -44 -4 -134 -32 -193
-39 -82 -184 -222 -299 -288 -96 -56 -271 -131 -281 -120 -10 9 38 116 103
231 105 185 257 366 352 416 48 26 105 26 131 0z"/>
<path d="M9876 3072 c-13 -26 -99 -182 -191 -347 -273 -488 -361 -683 -384
-849 -19 -136 24 -242 112 -275 44 -17 141 -13 197 8 111 42 277 194 414 379
38 50 70 91 72 90 1 -2 -6 -34 -16 -73 -35 -133 -23 -271 31 -346 49 -70 168
-90 264 -45 110 51 279 210 414 390 159 212 488 737 475 758 -3 4 -13 8 -23 8
-12 0 -43 -43 -100 -140 -165 -279 -377 -585 -509 -735 -123 -139 -271 -245
-342 -245 -62 0 -97 64 -86 156 17 146 125 375 449 951 103 183 190 340 193
348 5 13 -11 15 -113 15 l-118 0 -175 -342 c-185 -364 -274 -514 -411 -698
-159 -214 -279 -335 -386 -389 -46 -23 -109 -27 -134 -8 -47 36 -52 129 -13
245 36 109 209 440 438 840 108 189 196 345 196 348 0 2 -52 4 -115 4 l-115 0
-24 -48z"/>
<path d="M6381 1317 c-48 -24 -66 -62 -70 -148 l-3 -79 -39 0 c-28 0 -39 -4
-39 -15 0 -11 11 -15 40 -15 l40 0 0 -245 c0 -211 2 -245 15 -245 13 0 15 34
15 245 l0 245 81 0 c60 0 80 3 77 13 -3 8 -31 13 -81 15 l-77 3 0 52 c0 70 16
123 43 142 12 8 43 15 69 15 36 0 48 4 48 15 0 19 -83 21 -119 2z"/>
<path d="M8527 1243 c-12 -11 -8 -41 7 -46 15 -6 36 11 36 29 0 6 -7 15 -16
18 -19 7 -19 7 -27 -1z"/>
<path d="M4470 1074 c-190 -82 -200 -390 -17 -486 31 -16 60 -22 108 -23 56 0
73 4 115 30 51 32 94 92 94 133 0 36 -16 23 -47 -37 -35 -68 -82 -96 -163 -95
-104 0 -176 62 -200 169 -20 88 7 191 62 241 58 53 151 70 221 40 39 -16 87
-70 87 -97 0 -13 7 -19 21 -19 16 0 19 4 14 23 -34 109 -181 170 -295 121z"/>
<path d="M5079 1063 c-69 -36 -114 -94 -129 -170 -30 -142 42 -282 164 -318
62 -19 80 -19 145 1 112 33 179 145 169 279 -15 186 -188 289 -349 208z m228
-39 c74 -60 106 -158 84 -257 -25 -109 -101 -172 -206 -171 -70 1 -109 18
-153 68 -42 48 -55 98 -51 189 4 65 9 82 35 119 47 67 94 89 181 86 63 -3 76
-7 110 -34z"/>
<path d="M5640 830 c0 -224 2 -260 15 -260 13 0 15 26 15 178 0 200 6 222 73
276 29 23 50 31 95 34 79 6 125 -15 151 -67 19 -36 21 -58 21 -231 0 -183 1
-190 20 -190 19 0 20 7 20 159 0 228 -14 283 -83 335 -33 25 -130 33 -182 16
-21 -7 -55 -30 -76 -51 l-39 -39 0 50 c0 38 -4 50 -15 50 -13 0 -15 -36 -15
-260z"/>
<path d="M6774 1077 c-56 -22 -93 -57 -121 -115 -23 -47 -28 -70 -28 -132 0
-96 23 -156 79 -208 102 -94 282 -73 345 39 25 43 25 49 8 49 -8 0 -25 -17
-38 -37 -36 -56 -82 -78 -159 -77 -40 0 -77 7 -96 17 -63 33 -104 105 -104
185 l0 32 211 0 210 0 -6 48 c-10 74 -51 149 -97 180 -32 21 -55 27 -107 29
-36 1 -80 -3 -97 -10z m153 -28 c58 -22 112 -99 113 -161 l0 -28 -190 0 c-184
0 -190 1 -190 20 0 56 59 141 115 166 36 16 113 18 152 3z"/>
<path d="M7385 1071 c-50 -22 -108 -86 -126 -137 -7 -22 -14 -70 -14 -109 0
-58 5 -80 30 -130 69 -138 240 -176 353 -79 43 36 80 110 63 127 -12 12 -31 0
-31 -21 0 -29 -36 -78 -76 -102 -28 -18 -53 -24 -98 -24 -86 -1 -145 34 -181
109 -24 49 -27 64 -24 139 4 74 8 89 34 128 86 123 282 116 335 -13 16 -39 45
-40 35 -1 -27 107 -183 166 -300 113z"/>
<path d="M8022 1077 c-95 -35 -155 -132 -155 -252 0 -85 24 -145 78 -198 37
-36 111 -67 160 -67 47 0 122 31 152 62 30 30 63 93 63 118 0 27 -28 4 -50
-43 -58 -121 -208 -142 -306 -43 -98 98 -83 300 28 374 30 19 56 27 102 30 83
5 142 -25 171 -85 11 -24 26 -43 32 -43 29 0 4 67 -39 107 -53 50 -159 67
-236 40z"/>
<path d="M8530 830 c0 -224 2 -260 15 -260 13 0 15 36 15 260 0 224 -2 260
-15 260 -13 0 -15 -36 -15 -260z"/>
<path d="M8915 1071 c-51 -23 -118 -98 -133 -149 -15 -48 -15 -135 -2 -184 15
-53 68 -119 120 -148 60 -33 156 -34 216 -2 122 63 172 225 113 361 -51 119
-197 176 -314 122z m209 -41 c116 -74 132 -274 30 -376 -126 -126 -332 -44
-351 139 -8 75 12 147 52 195 46 53 87 71 161 72 50 0 68 -5 108 -30z"/>
<path d="M9467 1084 c-4 -4 -7 -121 -7 -261 0 -244 1 -253 19 -253 19 0 20 10
23 193 3 184 4 193 27 226 47 66 170 93 238 51 60 -36 67 -63 71 -277 3 -162
6 -193 19 -193 12 0 14 29 11 203 -3 181 -5 206 -23 236 -31 53 -67 74 -135
79 -76 6 -138 -16 -179 -63 l-30 -34 -3 46 c-3 44 -15 62 -31 47z"/>
<path d="M10224 1077 c-56 -22 -93 -57 -121 -115 -23 -47 -28 -70 -28 -132 0
-96 23 -156 79 -208 102 -94 282 -73 345 39 25 43 25 49 8 49 -8 0 -25 -17
-38 -37 -36 -56 -82 -78 -159 -77 -40 0 -77 7 -96 17 -63 33 -104 105 -104
185 l0 32 211 0 210 0 -6 48 c-10 74 -51 149 -97 180 -32 21 -55 27 -107 29
-36 1 -80 -3 -97 -10z m153 -28 c58 -22 112 -99 113 -161 l0 -28 -190 0 c-184
0 -190 1 -190 20 0 56 59 141 115 166 36 16 113 18 152 3z"/>
<path d="M10782 1069 c-49 -25 -72 -61 -72 -116 0 -70 39 -102 157 -128 127
-29 163 -56 163 -121 0 -41 -29 -85 -65 -100 -44 -18 -116 -18 -159 0 -35 15
-76 63 -76 90 0 17 -26 33 -36 23 -11 -11 17 -74 44 -100 60 -57 160 -73 239
-37 55 24 83 70 83 134 0 41 -5 53 -33 81 -27 27 -49 36 -132 55 -77 18 -105
29 -127 51 -40 39 -38 81 6 125 32 32 39 34 98 34 74 0 118 -22 138 -69 12
-31 40 -43 40 -17 0 25 -45 81 -80 98 -49 25 -134 23 -188 -3z"/>
</g>
</svg>
